<svg width="1368" height="768" viewBox="0 0 1368 768" fill="none" xmlns="http://www.w3.org/2000/svg">
<g clip-path="url(#clip0_1_14)">
<rect width="1368" height="768" fill="white"/>
<path d="M683 196.841C683.03 196.292 683.205 195.76 683.509 195.301C683.813 194.843 684.233 194.473 684.727 194.231C685.221 193.989 685.77 193.882 686.319 193.923C686.868 193.964 687.395 194.15 687.848 194.463C688.087 193.727 688.519 193.068 689.099 192.556C689.679 192.044 690.386 191.697 691.146 191.552C691.907 191.406 692.692 191.468 693.42 191.73C694.148 191.992 694.793 192.445 695.286 193.041C695.546 191.552 696.354 190.214 697.552 189.291C698.75 188.369 700.25 187.928 701.756 188.057C703.263 188.186 704.666 188.875 705.69 189.988C706.713 191.1 707.283 192.556 707.286 194.068C707.287 194.294 707.274 194.52 707.248 194.745C707.679 194.343 708.215 194.073 708.794 193.966C709.373 193.858 709.971 193.918 710.517 194.139C711.063 194.359 711.535 194.731 711.877 195.21C712.219 195.69 712.417 196.257 712.448 196.845L683 196.841Z" fill="url(#paint0_linear_1_14)"/>
<path d="M1368 0H0V768H1368V0Z" fill="url(#paint1_linear_1_14)"/>
<path d="M153.448 182.771L207.397 263.898L149.344 266.711L124.644 171.05C145.05 170.109 153.448 182.771 153.448 182.771Z" fill="white"/>
<path d="M153.448 182.771L207.397 263.898L149.344 266.711L124.644 171.05C145.05 170.109 153.448 182.771 153.448 182.771Z" fill="url(#paint2_linear_1_14)"/>
<g style="mix-blend-mode:multiply">
<mask id="mask0_1_14" style="mask-type:luminance" maskUnits="userSpaceOnUse" x="124" y="171" width="84" height="96">
<path d="M153.448 182.771L207.397 263.898L149.344 266.711L124.644 171.05C145.05 170.109 153.448 182.771 153.448 182.771Z" fill="white"/>
</mask>
<g mask="url(#mask0_1_14)">
<path d="M142.835 196.749L128.171 154.62L130.271 153.89L173.982 279.476L171.882 280.207L143.613 198.97H111.282V196.749H142.835Z" fill="url(#paint3_linear_1_14)"/>
<path d="M145.05 224.014L159.567 267.824H118.79L125.99 224.014H145.05ZM156.55 265.6L143.508 226.237H127.929L121.458 265.6H156.55Z" fill="url(#paint4_linear_1_14)"/>
</g>
</g>
<path d="M144.942 257.107H586.47V257.141C591.696 257.444 596.882 258.229 601.963 259.487C627.509 265.287 668.794 287.948 658.063 320.358C652.849 336.11 639.063 342.607 624.233 345.071C618.071 346.03 611.842 346.483 605.606 346.427H586.591C586.549 346.419 586.507 346.411 586.468 346.401V346.427H355.768C337.405 346.427 318.968 346.878 300.674 344.953C287.02 343.515 270.459 342.753 257.297 338.786C219.979 327.523 183.359 308.105 147.447 292.916C138.756 289.242 128.241 284.68 128.241 273.804C128.241 271.611 128.672 269.439 129.512 267.413C130.351 265.387 131.581 263.546 133.132 261.995C134.683 260.445 136.524 259.215 138.551 258.376C140.577 257.537 142.749 257.106 144.942 257.107Z" fill="white"/>
<path d="M615.306 281.528C618.245 281.585 621.178 281.542 624.106 281.397L630.454 295.279C630.247 295.297 630.037 295.318 629.828 295.334C624.803 295.758 619.76 295.915 614.718 295.805L615.306 281.528Z" fill="url(#paint5_linear_1_14)"/>
<path d="M627.018 281.221C627.555 281.182 628.094 281.148 628.631 281.101C628.861 281.083 629.095 281.062 629.331 281.041C633.802 280.637 638.248 280.001 642.653 279.135C646.94 282.603 650.698 286.68 653.806 291.235C647.078 292.986 640.23 294.243 633.319 294.998L627.018 281.221Z" fill="url(#paint6_linear_1_14)"/>
<path d="M597.132 292.12C599.222 288.987 601.197 285.809 603.058 282.588C603.359 282.097 603.783 281.694 604.289 281.417C604.794 281.141 605.362 281.001 605.938 281.012C608.156 281.216 610.373 281.361 612.59 281.447L612.008 295.725C607.352 295.536 602.699 295.118 598.05 294.471C596.785 294.291 596.39 293.225 597.132 292.12Z" fill="url(#paint7_linear_1_14)"/>
<path d="M549.838 282.485H564.015C564.864 282.485 565.678 282.822 566.278 283.422C566.878 284.022 567.215 284.836 567.215 285.685V317.015C567.215 317.435 567.132 317.851 566.971 318.24C566.811 318.628 566.575 318.981 566.278 319.278C565.981 319.575 565.628 319.811 565.24 319.971C564.851 320.132 564.435 320.215 564.015 320.215H549.839C549.419 320.215 549.003 320.132 548.615 319.971C548.226 319.81 547.874 319.574 547.577 319.276C547.28 318.979 547.045 318.626 546.885 318.237C546.725 317.849 546.643 317.432 546.644 317.012V285.679C546.644 284.832 546.981 284.019 547.58 283.42C548.179 282.821 548.991 282.485 549.838 282.485Z" fill="url(#paint8_linear_1_14)"/>
<path d="M223.749 282.485H237.929C238.778 282.485 239.592 282.822 240.192 283.422C240.792 284.022 241.129 284.836 241.129 285.685V317.011C241.129 317.86 240.792 318.674 240.192 319.274C239.592 319.874 238.778 320.211 237.929 320.211H223.744C223.324 320.211 222.908 320.128 222.52 319.967C222.133 319.807 221.78 319.571 221.483 319.274C221.187 318.977 220.951 318.624 220.791 318.236C220.631 317.848 220.548 317.432 220.549 317.012V285.685C220.549 284.836 220.886 284.022 221.486 283.422C222.086 282.822 222.9 282.485 223.749 282.485Z" fill="url(#paint9_linear_1_14)"/>
<path d="M521.628 290.311H527.015C527.336 290.312 527.644 290.44 527.871 290.668C528.098 290.895 528.225 291.204 528.225 291.525V303.425C528.224 303.745 528.096 304.053 527.869 304.279C527.643 304.506 527.336 304.633 527.015 304.634H521.627C521.468 304.634 521.31 304.603 521.163 304.542C521.016 304.481 520.882 304.391 520.77 304.279C520.657 304.166 520.568 304.032 520.507 303.885C520.446 303.738 520.415 303.58 520.415 303.421V291.524C520.415 291.202 520.543 290.894 520.77 290.666C520.998 290.439 521.306 290.311 521.628 290.311Z" fill="url(#paint10_linear_1_14)"/>
<path d="M504.981 290.311H510.367C510.689 290.311 510.997 290.439 511.225 290.667C511.452 290.895 511.58 291.203 511.58 291.525V303.425C511.579 303.746 511.451 304.054 511.224 304.28C510.996 304.507 510.688 304.634 510.367 304.634H504.981C504.659 304.634 504.35 304.506 504.123 304.278C503.895 304.051 503.767 303.742 503.767 303.42V291.525C503.767 291.203 503.895 290.894 504.123 290.667C504.35 290.439 504.659 290.311 504.981 290.311Z" fill="url(#paint11_linear_1_14)"/>
<path d="M488.339 290.311H493.72C494.042 290.311 494.351 290.439 494.578 290.667C494.806 290.894 494.934 291.203 494.934 291.525V303.425C494.933 303.745 494.806 304.052 494.579 304.279C494.353 304.505 494.046 304.633 493.726 304.634H488.338C488.179 304.634 488.021 304.603 487.874 304.542C487.727 304.481 487.593 304.391 487.481 304.279C487.368 304.166 487.279 304.032 487.218 303.885C487.157 303.738 487.126 303.58 487.126 303.421V291.524C487.126 291.202 487.254 290.894 487.481 290.666C487.709 290.439 488.017 290.311 488.339 290.311Z" fill="url(#paint12_linear_1_14)"/>
<path d="M477.076 290.311H471.691C471.021 290.311 470.477 290.854 470.477 291.525V303.42C470.477 304.09 471.021 304.634 471.691 304.634H477.076C477.746 304.634 478.29 304.09 478.29 303.42V291.525C478.29 290.854 477.746 290.311 477.076 290.311Z" fill="url(#paint13_linear_1_14)"/>
<path d="M455.043 290.311H460.425C460.747 290.311 461.056 290.439 461.283 290.667C461.511 290.894 461.639 291.203 461.639 291.525V303.42C461.639 303.579 461.608 303.737 461.547 303.885C461.486 304.032 461.396 304.166 461.283 304.278C461.171 304.391 461.037 304.481 460.89 304.542C460.742 304.603 460.584 304.634 460.425 304.634H455.043C454.884 304.634 454.726 304.603 454.579 304.542C454.432 304.481 454.298 304.391 454.186 304.279C454.073 304.166 453.984 304.032 453.923 303.885C453.862 303.738 453.831 303.58 453.831 303.421V291.523C453.831 291.202 453.959 290.893 454.186 290.666C454.413 290.439 454.722 290.311 455.043 290.311Z" fill="url(#paint14_linear_1_14)"/>
<path d="M376.873 290.311H382.259C382.58 290.312 382.888 290.44 383.115 290.668C383.342 290.895 383.469 291.204 383.469 291.525V303.419C383.469 303.74 383.342 304.049 383.115 304.276C382.888 304.504 382.58 304.633 382.259 304.634H376.871C376.712 304.634 376.554 304.603 376.407 304.542C376.26 304.481 376.126 304.391 376.014 304.279C375.901 304.166 375.812 304.032 375.751 303.885C375.69 303.738 375.659 303.58 375.659 303.421V291.525C375.659 291.203 375.787 290.894 376.015 290.667C376.242 290.439 376.551 290.311 376.873 290.311Z" fill="url(#paint15_linear_1_14)"/>
<path d="M360.226 290.311H365.613C365.934 290.312 366.242 290.44 366.469 290.668C366.696 290.895 366.823 291.204 366.823 291.525V303.425C366.822 303.746 366.694 304.053 366.468 304.279C366.241 304.506 365.934 304.633 365.613 304.634H360.225C360.066 304.634 359.908 304.603 359.761 304.542C359.614 304.481 359.48 304.391 359.368 304.279C359.255 304.166 359.166 304.032 359.105 303.885C359.044 303.738 359.013 303.58 359.013 303.421V291.524C359.013 291.202 359.141 290.894 359.368 290.666C359.596 290.439 359.904 290.311 360.226 290.311Z" fill="url(#paint16_linear_1_14)"/>
<path d="M343.581 290.311H348.967C349.288 290.312 349.596 290.44 349.823 290.668C350.05 290.895 350.177 291.204 350.177 291.525V303.42C350.177 303.741 350.05 304.049 349.823 304.277C349.596 304.505 349.288 304.633 348.967 304.634H343.579C343.42 304.634 343.262 304.603 343.115 304.542C342.968 304.481 342.834 304.391 342.722 304.279C342.609 304.166 342.52 304.032 342.459 303.885C342.398 303.738 342.367 303.58 342.367 303.421V291.525C342.367 291.203 342.495 290.894 342.723 290.667C342.95 290.439 343.259 290.311 343.581 290.311Z" fill="url(#paint17_linear_1_14)"/>
<path d="M326.932 290.311H332.318C332.64 290.311 332.948 290.439 333.176 290.667C333.403 290.895 333.531 291.203 333.531 291.525V303.42C333.531 303.742 333.403 304.05 333.176 304.278C332.948 304.506 332.64 304.634 332.318 304.634H326.93C326.771 304.634 326.613 304.603 326.466 304.542C326.319 304.481 326.185 304.391 326.073 304.279C325.96 304.166 325.871 304.032 325.81 303.885C325.749 303.738 325.718 303.58 325.718 303.421V291.525C325.718 291.203 325.846 290.894 326.074 290.667C326.301 290.439 326.61 290.311 326.932 290.311Z" fill="url(#paint18_linear_1_14)"/>
<path d="M310.289 290.311H315.675C315.996 290.312 316.304 290.44 316.531 290.668C316.758 290.895 316.885 291.204 316.885 291.525V303.425C316.884 303.746 316.756 304.053 316.53 304.279C316.303 304.506 315.996 304.633 315.675 304.634H310.287C310.128 304.634 309.97 304.603 309.823 304.542C309.676 304.481 309.542 304.391 309.43 304.279C309.317 304.166 309.228 304.032 309.167 303.885C309.106 303.738 309.075 303.58 309.075 303.421V291.525C309.075 291.203 309.203 290.894 309.431 290.667C309.658 290.439 309.967 290.311 310.289 290.311Z" fill="url(#paint19_linear_1_14)"/>
<path d="M583.292 259.676H581.885V343.017H583.292V259.676Z" fill="url(#paint20_linear_1_14)"/>
<path d="M199.911 259.676H198.504V311.116H199.911V259.676Z" fill="url(#paint21_linear_1_14)"/>
<path d="M419.426 259.676H418.019V343.017H419.426V259.676Z" fill="url(#paint22_linear_1_14)"/>
<path d="M592.036 312.947C592.036 312.584 591.928 312.23 591.727 311.928C591.525 311.627 591.239 311.392 590.904 311.253C590.569 311.115 590.2 311.078 589.845 311.149C589.489 311.22 589.163 311.395 588.906 311.652C588.65 311.908 588.476 312.235 588.405 312.591C588.335 312.946 588.371 313.315 588.51 313.65C588.649 313.985 588.884 314.271 589.186 314.472C589.488 314.673 589.842 314.78 590.205 314.78C590.691 314.779 591.157 314.586 591.5 314.242C591.843 313.899 592.036 313.433 592.036 312.947ZM590.205 317.962C590.567 317.963 590.921 318.071 591.223 318.272C591.524 318.474 591.758 318.761 591.896 319.096C592.035 319.431 592.07 319.799 591.999 320.154C591.928 320.51 591.754 320.836 591.497 321.092C591.241 321.348 590.914 321.522 590.558 321.593C590.203 321.663 589.835 321.627 589.5 321.488C589.165 321.349 588.879 321.114 588.678 320.813C588.476 320.512 588.369 320.157 588.369 319.795C588.369 319.554 588.416 319.315 588.508 319.093C588.601 318.87 588.736 318.667 588.906 318.497C589.077 318.327 589.279 318.192 589.502 318.1C589.725 318.008 589.964 317.961 590.205 317.962Z" fill="url(#paint23_linear_1_14)"/>
<path d="M416.031 290.311H421.418C421.739 290.312 422.047 290.44 422.274 290.668C422.501 290.895 422.628 291.204 422.628 291.525V303.419C422.628 303.74 422.501 304.049 422.274 304.276C422.047 304.504 421.739 304.633 421.418 304.634H416.03C415.871 304.634 415.713 304.603 415.566 304.542C415.419 304.481 415.285 304.391 415.173 304.279C415.06 304.166 414.971 304.032 414.91 303.885C414.849 303.738 414.818 303.58 414.818 303.421V291.524C414.818 291.202 414.946 290.894 415.173 290.666C415.401 290.439 415.709 290.311 416.031 290.311Z" fill="url(#paint24_linear_1_14)"/>
<mask id="mask1_1_14" style="mask-type:luminance" maskUnits="userSpaceOnUse" x="128" y="257" width="532" height="90">
<path d="M144.942 257.107H586.47V257.141C591.696 257.444 596.882 258.229 601.963 259.487C627.509 265.287 668.794 287.948 658.063 320.358C652.849 336.11 639.063 342.607 624.233 345.071C618.071 346.03 611.842 346.483 605.606 346.427H586.591C586.549 346.419 586.507 346.411 586.468 346.401V346.427H355.768C337.405 346.427 318.968 346.878 300.674 344.953C287.02 343.515 270.459 342.753 257.297 338.786C219.979 327.523 183.359 308.105 147.447 292.916C138.756 289.242 128.241 284.68 128.241 273.804C128.241 271.611 128.672 269.439 129.512 267.413C130.351 265.387 131.581 263.546 133.132 261.995C134.683 260.445 136.524 259.215 138.551 258.376C140.577 257.537 142.749 257.106 144.942 257.107Z" fill="white"/>
</mask>
<g mask="url(#mask1_1_14)">
<path d="M693.907 324.216H124.882V352.78H693.907V324.216Z" fill="url(#paint25_linear_1_14)"/>
</g>
<path d="M251.549 246.954L308.196 299.335L430.678 330.721L428.955 346.413H348.773L265.139 300.482C256.139 294.168 253.847 286.32 253.847 286.32L229.347 241.92C243.131 241.921 251.549 246.954 251.549 246.954Z" fill="url(#paint26_linear_1_14)"/>
<mask id="mask2_1_14" style="mask-type:luminance" maskUnits="userSpaceOnUse" x="229" y="241" width="202" height="106">
<path d="M251.549 246.954L308.196 299.335L430.678 330.721L428.955 346.413H348.773L265.139 300.482C256.139 294.168 253.847 286.32 253.847 286.32L229.347 241.92C243.131 241.921 251.549 246.954 251.549 246.954Z" fill="white"/>
</mask>
<g mask="url(#mask2_1_14)">
<path d="M289.688 220.787C289.688 220.787 364.404 299.096 313.23 298.559C302.014 298.444 290.562 297.959 279.576 295.492C276.544 294.787 273.563 293.878 270.654 292.771C264.183 290.371 259.86 282.771 256.408 277.229L231.228 235.321L289.688 220.787Z" fill="url(#paint27_linear_1_14)"/>
</g>
<path d="M148.164 265.074L178.874 279.838L146.586 277.438L128.243 263.159C128.243 263.159 141.842 262.642 148.164 265.074Z" fill="url(#paint28_linear_1_14)"/>
<path style="mix-blend-mode:multiply" d="M251.549 246.954L308.196 299.335L430.678 330.721L428.955 346.413H348.773L265.139 300.482C256.139 294.168 253.847 286.32 253.847 286.32L229.347 241.92C243.131 241.921 251.549 246.954 251.549 246.954Z" fill="url(#paint29_linear_1_14)"/>
<path d="M417.228 324.212H455.305V364.855H417.228C412.055 364.854 407.094 362.798 403.436 359.14C399.778 355.481 397.722 350.52 397.721 345.347V343.723C397.721 341.161 398.225 338.624 399.205 336.257C400.185 333.89 401.622 331.739 403.434 329.927C405.245 328.116 407.396 326.678 409.762 325.698C412.129 324.717 414.666 324.212 417.228 324.212Z" fill="white"/>
<path d="M417.228 324.212H455.305V364.855H417.228C412.055 364.854 407.094 362.798 403.436 359.14C399.778 355.481 397.722 350.52 397.721 345.347V343.723C397.721 341.161 398.225 338.624 399.205 336.257C400.185 333.89 401.622 331.739 403.434 329.927C405.245 328.116 407.396 326.678 409.762 325.698C412.129 324.717 414.666 324.212 417.228 324.212Z" fill="url(#paint30_linear_1_14)"/>
<path d="M463.191 324.217H455.304V364.859H463.191V324.217Z" fill="white"/>
<path d="M587.779 377.385C587.682 375.618 587.116 373.909 586.139 372.434C585.162 370.958 583.81 369.769 582.221 368.989C580.632 368.21 578.865 367.867 577.1 367.997C575.335 368.127 573.636 368.724 572.179 369.728C571.412 367.358 570.022 365.238 568.155 363.589C566.287 361.94 564.011 360.823 561.564 360.355C559.117 359.887 556.589 360.086 554.245 360.93C551.901 361.774 549.827 363.232 548.24 365.152C547.412 360.35 544.812 356.033 540.953 353.055C537.095 350.077 532.26 348.655 527.404 349.071C522.549 349.487 518.025 351.709 514.729 355.299C511.434 358.89 509.605 363.586 509.605 368.459C509.606 369.187 509.647 369.915 509.727 370.638C508.342 369.348 506.617 368.479 504.756 368.134C502.894 367.788 500.972 367.981 499.217 368.689C497.461 369.398 495.943 370.592 494.842 372.132C493.741 373.672 493.102 375.495 493 377.385H587.779Z" fill="url(#paint31_linear_1_14)"/>
<path d="M741 314C740.942 312.942 740.601 311.918 740.014 311.034C739.426 310.151 738.613 309.439 737.657 308.972C736.702 308.505 735.639 308.299 734.578 308.377C733.516 308.455 732.495 308.813 731.618 309.414C731.157 307.995 730.321 306.725 729.198 305.737C728.075 304.749 726.706 304.081 725.234 303.8C723.763 303.52 722.243 303.639 720.833 304.145C719.423 304.65 718.176 305.524 717.221 306.674C716.723 303.797 715.159 301.212 712.839 299.428C710.519 297.645 707.611 296.794 704.691 297.042C701.77 297.291 699.05 298.623 697.068 300.773C695.086 302.923 693.986 305.735 693.986 308.654C693.987 309.09 694.011 309.526 694.06 309.959C693.226 309.186 692.189 308.666 691.07 308.459C689.95 308.252 688.795 308.368 687.739 308.792C686.683 309.216 685.77 309.931 685.108 310.854C684.446 311.776 684.061 312.868 684 314H741Z" fill="url(#paint32_linear_1_14)"/>
<path d="M61 410.68C61.0526 409.703 61.3647 408.758 61.9042 407.942C62.4437 407.126 63.1911 406.468 64.0693 406.038C64.9475 405.607 65.9248 405.418 66.9003 405.49C67.8758 405.563 68.8143 405.894 69.619 406.451C70.0437 405.142 70.8119 403.971 71.8435 403.061C72.8751 402.151 74.1321 401.535 75.4834 401.276C76.8347 401.018 78.2305 401.127 79.5251 401.593C80.8197 402.058 81.9657 402.863 82.843 403.923C83.3 401.27 84.736 398.885 86.8669 397.24C88.9979 395.595 91.6686 394.81 94.3508 395.039C97.033 395.269 99.5313 396.497 101.352 398.48C103.172 400.463 104.182 403.058 104.181 405.75C104.181 406.15 104.159 406.551 104.115 406.95C104.88 406.238 105.833 405.758 106.861 405.568C107.888 405.378 108.949 405.485 109.918 405.876C110.888 406.267 111.726 406.926 112.334 407.776C112.942 408.626 113.296 409.632 113.353 410.676L61 410.68Z" fill="url(#paint33_linear_1_14)"/>
<path d="M698 442.68C698.053 441.703 698.365 440.758 698.904 439.942C699.444 439.126 700.191 438.468 701.069 438.038C701.948 437.607 702.925 437.418 703.9 437.49C704.876 437.563 705.814 437.894 706.619 438.451C707.044 437.142 707.812 435.971 708.844 435.061C709.875 434.151 711.132 433.535 712.483 433.276C713.835 433.018 715.231 433.127 716.525 433.593C717.82 434.058 718.966 434.863 719.843 435.923C720.3 433.27 721.736 430.885 723.867 429.24C725.998 427.595 728.669 426.81 731.351 427.039C734.033 427.269 736.531 428.497 738.352 430.48C740.172 432.463 741.182 435.058 741.181 437.75C741.181 438.15 741.159 438.551 741.115 438.95C741.88 438.238 742.833 437.758 743.861 437.568C744.888 437.378 745.949 437.485 746.918 437.876C747.888 438.267 748.726 438.926 749.334 439.776C749.942 440.626 750.296 441.632 750.353 442.676L698 442.68Z" fill="url(#paint34_linear_1_14)"/>
<path d="M1316 326.68C1316.05 325.703 1316.36 324.758 1316.9 323.942C1317.44 323.126 1318.19 322.468 1319.07 322.038C1319.95 321.607 1320.92 321.418 1321.9 321.49C1322.88 321.563 1323.81 321.894 1324.62 322.451C1325.04 321.142 1325.81 319.971 1326.84 319.061C1327.88 318.151 1329.13 317.535 1330.48 317.276C1331.83 317.018 1333.23 317.127 1334.53 317.593C1335.82 318.058 1336.97 318.863 1337.84 319.923C1338.3 317.27 1339.74 314.885 1341.87 313.24C1344 311.595 1346.67 310.81 1349.35 311.039C1352.03 311.269 1354.53 312.497 1356.35 314.48C1358.17 316.463 1359.18 319.058 1359.18 321.75C1359.18 322.15 1359.16 322.551 1359.11 322.95C1359.88 322.238 1360.83 321.758 1361.86 321.568C1362.89 321.378 1363.95 321.485 1364.92 321.876C1365.89 322.267 1366.73 322.926 1367.33 323.776C1367.94 324.626 1368.3 325.632 1368.35 326.676L1316 326.68Z" fill="url(#paint35_linear_1_14)"/>
<path d="M552 218.806C552.03 218.257 552.205 217.725 552.509 217.266C552.813 216.808 553.233 216.438 553.727 216.196C554.221 215.953 554.77 215.847 555.319 215.888C555.868 215.929 556.395 216.115 556.848 216.428C557.087 215.692 557.519 215.033 558.099 214.521C558.679 214.009 559.386 213.662 560.146 213.517C560.907 213.371 561.692 213.433 562.42 213.695C563.148 213.957 563.793 214.41 564.286 215.006C564.546 213.516 565.354 212.179 566.552 211.256C567.75 210.333 569.25 209.893 570.756 210.022C572.263 210.151 573.666 210.84 574.69 211.952C575.713 213.065 576.283 214.521 576.286 216.033C576.287 216.259 576.274 216.485 576.248 216.71C576.679 216.308 577.215 216.038 577.794 215.93C578.373 215.823 578.971 215.883 579.517 216.104C580.063 216.324 580.535 216.696 580.877 217.175C581.219 217.655 581.417 218.222 581.448 218.81L552 218.806Z" fill="url(#paint36_linear_1_14)"/>
<path d="M319 364.806C319.03 364.257 319.205 363.725 319.509 363.266C319.813 362.808 320.233 362.438 320.727 362.196C321.221 361.953 321.77 361.847 322.319 361.888C322.868 361.929 323.395 362.115 323.848 362.428C324.087 361.692 324.519 361.033 325.099 360.521C325.679 360.009 326.386 359.662 327.146 359.517C327.907 359.371 328.692 359.433 329.42 359.695C330.148 359.957 330.793 360.41 331.286 361.006C331.546 359.516 332.354 358.179 333.552 357.256C334.75 356.333 336.25 355.893 337.756 356.022C339.263 356.151 340.666 356.84 341.69 357.952C342.713 359.065 343.283 360.521 343.286 362.033C343.287 362.259 343.274 362.485 343.248 362.71C343.679 362.308 344.215 362.038 344.794 361.93C345.373 361.823 345.971 361.883 346.517 362.104C347.063 362.324 347.535 362.696 347.877 363.175C348.219 363.655 348.417 364.222 348.448 364.81L319 364.806Z" fill="url(#paint37_linear_1_14)"/>
<path d="M38.4431 234.043C38.473 233.494 38.6487 232.963 38.9522 232.504C39.2557 232.045 39.6759 231.676 40.1696 231.434C40.6634 231.191 41.2127 231.085 41.7612 231.126C42.3096 231.166 42.8374 231.353 43.29 231.665C43.5283 230.929 43.9602 230.27 44.5405 229.757C45.1207 229.245 45.8279 228.898 46.5882 228.753C47.3485 228.607 48.1338 228.669 48.8621 228.931C49.5904 229.193 50.2348 229.646 50.728 230.243C51.0007 228.699 51.8628 227.321 53.1324 226.4C54.402 225.479 55.9797 225.088 57.5324 225.308C59.0851 225.529 60.4914 226.344 61.4543 227.582C62.4172 228.82 62.8613 230.384 62.6931 231.943C63.1236 231.541 63.6599 231.27 64.2391 231.163C64.8183 231.055 65.4161 231.115 65.9623 231.335C66.5086 231.556 66.9804 231.928 67.3224 232.408C67.6645 232.887 67.8624 233.455 67.893 234.043H38.4431Z" fill="url(#paint38_linear_1_14)"/>
<path d="M392.532 775.905C395.13 775.903 397.691 776.516 400.007 777.693C397.867 772.597 397.78 766.872 399.765 761.713C401.749 756.555 405.651 752.363 410.654 750.015C415.658 747.667 421.375 747.344 426.611 749.115C431.847 750.885 436.195 754.611 438.747 759.513C440.263 756.003 442.491 752.845 445.289 750.24C448.088 747.635 451.397 745.64 455.007 744.38C458.617 743.119 462.449 742.622 466.261 742.919C470.073 743.216 473.782 744.301 477.153 746.105C475.588 742.706 475.224 738.876 476.119 735.242C477.013 731.609 479.114 728.386 482.079 726.102C485.043 723.817 488.695 722.607 492.437 722.667C496.178 722.728 499.789 724.057 502.677 726.436C502.359 724.247 502.483 722.016 503.043 719.875C503.603 717.734 504.587 715.728 505.937 713.975C507.287 712.222 508.975 710.758 510.901 709.669C512.827 708.58 514.953 707.89 517.151 707.638C519.349 707.386 521.575 707.578 523.698 708.203C525.82 708.827 527.796 709.872 529.507 711.274C531.219 712.677 532.631 714.408 533.661 716.367C534.69 718.325 535.316 720.471 535.501 722.675C538.762 720.538 542.545 719.332 546.441 719.187C550.338 719.042 554.2 719.964 557.61 721.853C557.585 721.425 557.569 720.995 557.569 720.561C557.55 717.737 558.09 714.936 559.157 712.321C560.225 709.706 561.799 707.328 563.789 705.324C565.78 703.32 568.147 701.73 570.755 700.644C573.362 699.559 576.159 699 578.984 699C581.808 699 584.605 699.559 587.213 700.644C589.82 701.73 592.188 703.32 594.178 705.324C596.169 707.328 597.743 709.706 598.81 712.321C599.878 714.936 600.418 717.737 600.398 720.561C600.398 721.141 600.368 721.713 600.321 722.281C600.665 722.265 601.011 722.254 601.359 722.254C606.255 722.255 611.002 723.933 614.811 727.008C618.62 730.082 621.261 734.369 622.294 739.154C627.586 735.146 634.144 733.178 640.768 733.61C647.392 734.042 653.64 736.845 658.366 741.507C663.092 746.168 665.981 752.376 666.504 758.994C667.027 765.611 665.149 772.196 661.214 777.542C665.493 776.912 669.849 777.984 673.347 780.528C676.845 783.072 679.206 786.887 679.924 791.152C680.642 795.418 679.659 799.795 677.186 803.344C674.714 806.893 670.948 809.331 666.698 810.135L668.98 815.387L669.47 833.947C669.47 833.947 392.532 838.832 393.997 835.414C394.72 833.725 396.157 820.836 397.429 808.223C395.156 808.928 392.757 809.134 390.397 808.827C388.036 808.519 385.77 807.706 383.753 806.442C381.736 805.178 380.016 803.493 378.71 801.503C377.404 799.513 376.544 797.265 376.187 794.911C375.83 792.558 375.986 790.155 376.643 787.867C377.3 785.58 378.444 783.461 379.996 781.656C381.547 779.851 383.471 778.403 385.634 777.409C387.797 776.416 390.149 775.902 392.529 775.901L392.532 775.905Z" fill="url(#paint39_linear_1_14)"/>
<path d="M1159.53 775.905C1162.13 775.903 1164.69 776.516 1167.01 777.693C1164.87 772.597 1164.78 766.872 1166.76 761.713C1168.75 756.555 1172.65 752.363 1177.65 750.015C1182.66 747.667 1188.37 747.344 1193.61 749.115C1198.85 750.885 1203.2 754.611 1205.75 759.513C1207.26 756.003 1209.49 752.845 1212.29 750.24C1215.09 747.635 1218.4 745.64 1222.01 744.38C1225.62 743.119 1229.45 742.622 1233.26 742.919C1237.07 743.216 1240.78 744.301 1244.15 746.105C1242.59 742.706 1242.22 738.876 1243.12 735.242C1244.01 731.609 1246.11 728.386 1249.08 726.102C1252.04 723.817 1255.69 722.607 1259.44 722.667C1263.18 722.728 1266.79 724.057 1269.68 726.436C1269.36 724.247 1269.48 722.016 1270.04 719.875C1270.6 717.734 1271.59 715.728 1272.94 713.975C1274.29 712.222 1275.97 710.758 1277.9 709.669C1279.83 708.58 1281.95 707.89 1284.15 707.638C1286.35 707.386 1288.58 707.578 1290.7 708.203C1292.82 708.827 1294.8 709.872 1296.51 711.274C1298.22 712.677 1299.63 714.408 1300.66 716.367C1301.69 718.325 1302.32 720.471 1302.5 722.675C1305.76 720.538 1309.54 719.332 1313.44 719.187C1317.34 719.042 1321.2 719.964 1324.61 721.853C1324.59 721.425 1324.57 720.995 1324.57 720.561C1324.55 717.737 1325.09 714.936 1326.16 712.321C1327.22 709.706 1328.8 707.328 1330.79 705.324C1332.78 703.32 1335.15 701.73 1337.75 700.644C1340.36 699.559 1343.16 699 1345.98 699C1348.81 699 1351.61 699.559 1354.21 700.644C1356.82 701.73 1359.19 703.32 1361.18 705.324C1363.17 707.328 1364.74 709.706 1365.81 712.321C1366.88 714.936 1367.42 717.737 1367.4 720.561C1367.4 721.141 1367.37 721.713 1367.32 722.281C1367.67 722.265 1368.01 722.254 1368.36 722.254C1373.25 722.255 1378 723.933 1381.81 727.008C1385.62 730.082 1388.26 734.369 1389.29 739.154C1394.59 735.146 1401.14 733.178 1407.77 733.61C1414.39 734.042 1420.64 736.845 1425.37 741.507C1430.09 746.168 1432.98 752.376 1433.5 758.994C1434.03 765.611 1432.15 772.196 1428.21 777.542C1432.49 776.912 1436.85 777.984 1440.35 780.528C1443.85 783.072 1446.21 786.887 1446.92 791.152C1447.64 795.418 1446.66 799.795 1444.19 803.344C1441.71 806.893 1437.95 809.331 1433.7 810.135L1435.98 815.387L1436.47 833.947C1436.47 833.947 1159.53 838.832 1161 835.414C1161.72 833.725 1163.16 820.836 1164.43 808.223C1162.16 808.928 1159.76 809.134 1157.4 808.827C1155.04 808.519 1152.77 807.706 1150.75 806.442C1148.74 805.178 1147.02 803.493 1145.71 801.503C1144.4 799.513 1143.54 797.265 1143.19 794.911C1142.83 792.558 1142.99 790.155 1143.64 787.867C1144.3 785.58 1145.44 783.461 1147 781.656C1148.55 779.851 1150.47 778.403 1152.63 777.409C1154.8 776.416 1157.15 775.902 1159.53 775.901L1159.53 775.905Z" fill="url(#paint40_linear_1_14)"/>
<path d="M833.248 789.274C830.65 789.271 828.089 789.884 825.774 791.063C827.914 785.967 828.002 780.24 826.017 775.081C824.033 769.922 820.131 765.73 815.127 763.382C810.123 761.033 804.405 760.711 799.169 762.481C793.932 764.251 789.583 767.977 787.031 772.88C785.515 769.37 783.288 766.212 780.489 763.607C777.69 761.002 774.381 759.007 770.771 757.746C767.161 756.486 763.328 755.989 759.516 756.287C755.705 756.584 751.996 757.669 748.625 759.474C750.19 756.075 750.555 752.245 749.66 748.611C748.765 744.978 746.664 741.755 743.7 739.471C740.736 737.186 737.084 735.975 733.343 736.036C729.601 736.096 725.991 737.425 723.102 739.804C723.42 737.614 723.296 735.383 722.736 733.243C722.176 731.102 721.192 729.096 719.842 727.343C718.493 725.589 716.804 724.125 714.878 723.037C712.952 721.948 710.827 721.257 708.628 721.005C706.43 720.754 704.204 720.946 702.081 721.57C699.959 722.195 697.983 723.239 696.272 724.642C694.56 726.044 693.148 727.776 692.118 729.734C691.089 731.693 690.463 733.838 690.278 736.043C687.017 733.906 683.234 732.699 679.337 732.555C675.441 732.41 671.579 733.332 668.168 735.222C668.194 734.793 668.211 734.363 668.211 733.929C668.211 728.249 665.955 722.802 661.939 718.786C657.923 714.77 652.476 712.514 646.796 712.514C641.116 712.514 635.669 714.77 631.653 718.786C627.637 722.802 625.381 728.249 625.381 733.929C625.381 734.509 625.412 735.081 625.457 735.65C625.113 735.633 624.768 735.622 624.42 735.622C619.524 735.623 614.776 737.301 610.967 740.377C607.159 743.453 604.518 747.741 603.487 752.527C598.196 748.518 591.637 746.55 585.013 746.981C578.389 747.413 572.142 750.216 567.415 754.877C562.689 759.539 559.799 765.746 559.276 772.364C558.752 778.982 560.63 785.567 564.565 790.913C563.772 790.797 562.973 790.739 562.172 790.738C558.056 790.737 554.088 792.272 551.044 795.042C547.999 797.811 546.098 801.618 545.711 805.715C545.324 809.813 546.48 813.907 548.953 817.198C551.425 820.488 555.037 822.738 559.08 823.507L556.799 828.759L556.311 847.319C556.311 847.319 833.248 852.204 831.783 848.786C831.059 847.097 829.621 834.208 828.35 821.596C830.623 822.301 833.022 822.507 835.382 822.199C837.743 821.892 840.009 821.079 842.026 819.815C844.043 818.551 845.763 816.866 847.069 814.876C848.375 812.886 849.236 810.637 849.592 808.284C849.949 805.931 849.794 803.528 849.136 801.24C848.479 798.953 847.335 796.834 845.783 795.029C844.232 793.224 842.309 791.775 840.145 790.782C837.982 789.789 835.63 789.274 833.25 789.274H833.248Z" fill="url(#paint41_linear_1_14)"/>
<path d="M326.051 806.531C323.453 806.529 320.891 807.141 318.575 808.319C320.711 803.224 320.795 797.5 318.811 792.344C316.826 787.188 312.925 782.999 307.923 780.652C302.922 778.304 297.207 777.981 291.973 779.748C286.738 781.516 282.389 785.238 279.835 790.137C278.319 786.627 276.09 783.47 273.291 780.865C270.492 778.261 267.183 776.265 263.573 775.005C259.963 773.745 256.131 773.248 252.319 773.545C248.507 773.842 244.798 774.927 241.427 776.731C242.991 773.332 243.356 769.502 242.461 765.869C241.567 762.236 239.465 759.013 236.502 756.729C233.538 754.445 229.887 753.234 226.145 753.294C222.404 753.354 218.794 754.682 215.905 757.061C216.224 754.871 216.099 752.64 215.54 750.499C214.98 748.358 213.996 746.351 212.646 744.598C211.296 742.844 209.607 741.38 207.681 740.291C205.754 739.202 203.629 738.512 201.43 738.26C199.232 738.008 197.005 738.2 194.882 738.825C192.759 739.45 190.784 740.495 189.072 741.898C187.361 743.3 185.948 745.033 184.919 746.991C183.889 748.95 183.264 751.096 183.079 753.301C179.818 751.163 176.035 749.956 172.139 749.811C168.242 749.666 164.38 750.589 160.97 752.479C160.995 752.051 161.012 751.621 161.012 751.187C161.012 745.508 158.756 740.061 154.74 736.045C150.724 732.029 145.277 729.773 139.598 729.773C133.919 729.773 128.472 732.029 124.456 736.045C120.44 740.061 118.184 745.508 118.184 751.187C118.184 751.767 118.213 752.339 118.259 752.908C117.915 752.891 117.57 752.881 117.222 752.881C112.327 752.882 107.58 754.559 103.771 757.634C99.9617 760.709 97.3209 764.996 96.2879 769.781C90.9965 765.773 84.4384 763.804 77.8141 764.236C71.1898 764.668 64.9426 767.471 60.2163 772.132C55.49 776.794 52.6008 783.002 52.0775 789.619C51.5542 796.237 53.4319 802.822 57.3669 808.168C53.0898 807.542 48.7376 808.616 45.2429 811.16C41.7482 813.704 39.3893 817.516 38.6717 821.779C37.9542 826.042 38.9352 830.416 41.4044 833.964C43.8736 837.512 47.6345 839.952 51.881 840.76L49.6 846.013L49.112 864.574C49.112 864.574 326.05 869.459 324.584 866.039C323.862 864.351 322.422 851.462 321.152 838.849C323.425 839.554 325.824 839.759 328.183 839.451C330.543 839.143 332.809 838.33 334.825 837.066C336.842 835.802 338.562 834.118 339.867 832.128C341.173 830.138 342.033 827.89 342.39 825.537C342.747 823.184 342.591 820.782 341.934 818.494C341.277 816.207 340.134 814.089 338.582 812.284C337.031 810.479 335.109 809.03 332.946 808.037C330.783 807.044 328.432 806.529 326.052 806.528L326.051 806.531Z" fill="url(#paint42_linear_1_14)"/>
</g>
<defs>
<linearGradient id="paint0_linear_1_14" x1="1470.06" y1="197.145" x2="1470.06" y2="187.824" gradientUnits="userSpaceOnUse">
<stop stop-color="white" stop-opacity="0"/>
<stop offset="0.099" stop-color="white" stop-opacity="0.067"/>
<stop offset="0.294" stop-color="white" stop-opacity="0.239"/>
<stop offset="0.568" stop-color="white" stop-opacity="0.522"/>
<stop offset="0.907" stop-color="white" stop-opacity="0.902"/>
<stop offset="0.989" stop-color="white"/>
</linearGradient>
<linearGradient id="paint1_linear_1_14" x1="684" y1="768" x2="684" y2="0" gradientUnits="userSpaceOnUse">
<stop offset="0.005" stop-color="#F4F4F4"/>
<stop offset="0.995" stop-color="#3186EA"/>
</linearGradient>
<linearGradient id="paint2_linear_1_14" x1="166.021" y1="266.711" x2="166.021" y2="171" gradientUnits="userSpaceOnUse">
<stop stop-color="#FF4545"/>
<stop offset="0.984" stop-color="#D11919"/>
</linearGradient>
<linearGradient id="paint3_linear_1_14" x1="142.632" y1="280.207" x2="142.632" y2="153.89" gradientUnits="userSpaceOnUse">
<stop offset="0.005" stop-color="white"/>
<stop offset="1" stop-color="#9AE2FB"/>
</linearGradient>
<linearGradient id="paint4_linear_1_14" x1="-626.083" y1="224.014" x2="-626.083" y2="224.014" gradientUnits="userSpaceOnUse">
<stop offset="0.005" stop-color="white"/>
<stop offset="1" stop-color="#9AE2FB"/>
</linearGradient>
<linearGradient id="paint5_linear_1_14" x1="622.586" y1="295.839" x2="622.586" y2="281.397" gradientUnits="userSpaceOnUse">
<stop stop-color="#2B4BBC"/>
<stop offset="0.995" stop-color="#152783"/>
</linearGradient>
<linearGradient id="paint6_linear_1_14" x1="640.412" y1="294.998" x2="640.412" y2="279.135" gradientUnits="userSpaceOnUse">
<stop stop-color="#2B4BBC"/>
<stop offset="0.995" stop-color="#152783"/>
</linearGradient>
<linearGradient id="paint7_linear_1_14" x1="604.675" y1="295.725" x2="604.675" y2="281.011" gradientUnits="userSpaceOnUse">
<stop stop-color="#2B4BBC"/>
<stop offset="0.995" stop-color="#152783"/>
</linearGradient>
<linearGradient id="paint8_linear_1_14" x1="556.93" y1="320.215" x2="556.93" y2="282.485" gradientUnits="userSpaceOnUse">
<stop offset="0.005" stop-color="white"/>
<stop offset="1" stop-color="#9AE2FB"/>
</linearGradient>
<linearGradient id="paint9_linear_1_14" x1="230.839" y1="320.211" x2="230.839" y2="282.485" gradientUnits="userSpaceOnUse">
<stop offset="0.005" stop-color="white"/>
<stop offset="1" stop-color="#9AE2FB"/>
</linearGradient>
<linearGradient id="paint10_linear_1_14" x1="524.32" y1="304.634" x2="524.32" y2="290.311" gradientUnits="userSpaceOnUse">
<stop stop-color="#2B4BBC"/>
<stop offset="0.995" stop-color="#152783"/>
</linearGradient>
<linearGradient id="paint11_linear_1_14" x1="507.674" y1="304.634" x2="507.674" y2="290.311" gradientUnits="userSpaceOnUse">
<stop stop-color="#2B4BBC"/>
<stop offset="0.995" stop-color="#152783"/>
</linearGradient>
<linearGradient id="paint12_linear_1_14" x1="491.03" y1="304.634" x2="491.03" y2="290.311" gradientUnits="userSpaceOnUse">
<stop stop-color="#2B4BBC"/>
<stop offset="0.995" stop-color="#152783"/>
</linearGradient>
<linearGradient id="paint13_linear_1_14" x1="474.384" y1="304.634" x2="474.384" y2="290.311" gradientUnits="userSpaceOnUse">
<stop stop-color="#2B4BBC"/>
<stop offset="0.995" stop-color="#152783"/>
</linearGradient>
<linearGradient id="paint14_linear_1_14" x1="457.735" y1="304.634" x2="457.735" y2="290.311" gradientUnits="userSpaceOnUse">
<stop stop-color="#2B4BBC"/>
<stop offset="0.995" stop-color="#152783"/>
</linearGradient>
<linearGradient id="paint15_linear_1_14" x1="379.564" y1="304.634" x2="379.564" y2="290.311" gradientUnits="userSpaceOnUse">
<stop stop-color="#2B4BBC"/>
<stop offset="0.995" stop-color="#152783"/>
</linearGradient>
<linearGradient id="paint16_linear_1_14" x1="362.918" y1="304.634" x2="362.918" y2="290.311" gradientUnits="userSpaceOnUse">
<stop stop-color="#2B4BBC"/>
<stop offset="0.995" stop-color="#152783"/>
</linearGradient>
<linearGradient id="paint17_linear_1_14" x1="346.272" y1="304.634" x2="346.272" y2="290.311" gradientUnits="userSpaceOnUse">
<stop stop-color="#2B4BBC"/>
<stop offset="0.995" stop-color="#152783"/>
</linearGradient>
<linearGradient id="paint18_linear_1_14" x1="329.625" y1="304.634" x2="329.625" y2="290.311" gradientUnits="userSpaceOnUse">
<stop stop-color="#2B4BBC"/>
<stop offset="0.995" stop-color="#152783"/>
</linearGradient>
<linearGradient id="paint19_linear_1_14" x1="312.98" y1="304.634" x2="312.98" y2="290.311" gradientUnits="userSpaceOnUse">
<stop stop-color="#2B4BBC"/>
<stop offset="0.995" stop-color="#152783"/>
</linearGradient>
<linearGradient id="paint20_linear_1_14" x1="582.589" y1="343.017" x2="582.589" y2="259.676" gradientUnits="userSpaceOnUse">
<stop offset="0.005" stop-color="white"/>
<stop offset="1" stop-color="#9AE2FB"/>
</linearGradient>
<linearGradient id="paint21_linear_1_14" x1="199.208" y1="259.676" x2="199.208" y2="259.676" gradientUnits="userSpaceOnUse">
<stop offset="0.005" stop-color="white"/>
<stop offset="1" stop-color="#9AE2FB"/>
</linearGradient>
<linearGradient id="paint22_linear_1_14" x1="418.723" y1="259.676" x2="418.723" y2="259.676" gradientUnits="userSpaceOnUse">
<stop offset="0.005" stop-color="white"/>
<stop offset="1" stop-color="#9AE2FB"/>
</linearGradient>
<linearGradient id="paint23_linear_1_14" x1="590.203" y1="311.114" x2="590.203" y2="311.114" gradientUnits="userSpaceOnUse">
<stop offset="0.005" stop-color="white"/>
<stop offset="1" stop-color="#9AE2FB"/>
</linearGradient>
<linearGradient id="paint24_linear_1_14" x1="418.723" y1="304.634" x2="418.723" y2="290.311" gradientUnits="userSpaceOnUse">
<stop stop-color="#2B4BBC"/>
<stop offset="0.995" stop-color="#152783"/>
</linearGradient>
<linearGradient id="paint25_linear_1_14" x1="409.395" y1="352.78" x2="409.395" y2="324.216" gradientUnits="userSpaceOnUse">
<stop stop-color="#9AE2FB"/>
<stop offset="0.995" stop-color="white"/>
</linearGradient>
<linearGradient id="paint26_linear_1_14" x1="330.013" y1="346.413" x2="330.013" y2="241.92" gradientUnits="userSpaceOnUse">
<stop stop-color="#9AE2FB"/>
<stop offset="0.995" stop-color="white"/>
</linearGradient>
<linearGradient id="paint27_linear_1_14" x1="281.187" y1="298.562" x2="281.187" y2="220.787" gradientUnits="userSpaceOnUse">
<stop stop-color="#FF4545"/>
<stop offset="0.984" stop-color="#D11919"/>
</linearGradient>
<linearGradient id="paint28_linear_1_14" x1="153.559" y1="279.838" x2="153.559" y2="263.113" gradientUnits="userSpaceOnUse">
<stop stop-color="#FF4545"/>
<stop offset="0.984" stop-color="#D11919"/>
</linearGradient>
<linearGradient id="paint29_linear_1_14" x1="330.013" y1="345.055" x2="330.013" y2="314.543" gradientUnits="userSpaceOnUse">
<stop stop-color="#9AE2FB"/>
<stop offset="0.989" stop-color="white" stop-opacity="0"/>
</linearGradient>
<linearGradient id="paint30_linear_1_14" x1="426.513" y1="364.855" x2="426.513" y2="324.212" gradientUnits="userSpaceOnUse">
<stop offset="0.005" stop-color="white"/>
<stop offset="1" stop-color="#9AE2FB"/>
</linearGradient>
<linearGradient id="paint31_linear_1_14" x1="540.389" y1="378.351" x2="540.389" y2="348.319" gradientUnits="userSpaceOnUse">
<stop stop-color="white" stop-opacity="0"/>
<stop offset="0.099" stop-color="white" stop-opacity="0.067"/>
<stop offset="0.294" stop-color="white" stop-opacity="0.239"/>
<stop offset="0.568" stop-color="white" stop-opacity="0.522"/>
<stop offset="0.907" stop-color="white" stop-opacity="0.902"/>
<stop offset="0.989" stop-color="white"/>
</linearGradient>
<linearGradient id="paint32_linear_1_14" x1="712.5" y1="314.578" x2="712.5" y2="296.592" gradientUnits="userSpaceOnUse">
<stop stop-color="white" stop-opacity="0"/>
<stop offset="0.099" stop-color="white" stop-opacity="0.067"/>
<stop offset="0.294" stop-color="white" stop-opacity="0.239"/>
<stop offset="0.568" stop-color="white" stop-opacity="0.522"/>
<stop offset="0.907" stop-color="white" stop-opacity="0.902"/>
<stop offset="0.989" stop-color="white"/>
</linearGradient>
<linearGradient id="paint33_linear_1_14" x1="803.628" y1="411.213" x2="803.628" y2="394.624" gradientUnits="userSpaceOnUse">
<stop stop-color="white" stop-opacity="0"/>
<stop offset="0.099" stop-color="white" stop-opacity="0.067"/>
<stop offset="0.294" stop-color="white" stop-opacity="0.239"/>
<stop offset="0.568" stop-color="white" stop-opacity="0.522"/>
<stop offset="0.907" stop-color="white" stop-opacity="0.902"/>
<stop offset="0.989" stop-color="white"/>
</linearGradient>
<linearGradient id="paint34_linear_1_14" x1="1440.63" y1="443.213" x2="1440.63" y2="426.624" gradientUnits="userSpaceOnUse">
<stop stop-color="white" stop-opacity="0"/>
<stop offset="0.099" stop-color="white" stop-opacity="0.067"/>
<stop offset="0.294" stop-color="white" stop-opacity="0.239"/>
<stop offset="0.568" stop-color="white" stop-opacity="0.522"/>
<stop offset="0.907" stop-color="white" stop-opacity="0.902"/>
<stop offset="0.989" stop-color="white"/>
</linearGradient>
<linearGradient id="paint35_linear_1_14" x1="2058.63" y1="327.213" x2="2058.63" y2="310.624" gradientUnits="userSpaceOnUse">
<stop stop-color="white" stop-opacity="0"/>
<stop offset="0.099" stop-color="white" stop-opacity="0.067"/>
<stop offset="0.294" stop-color="white" stop-opacity="0.239"/>
<stop offset="0.568" stop-color="white" stop-opacity="0.522"/>
<stop offset="0.907" stop-color="white" stop-opacity="0.902"/>
<stop offset="0.989" stop-color="white"/>
</linearGradient>
<linearGradient id="paint36_linear_1_14" x1="1339.06" y1="219.109" x2="1339.06" y2="209.789" gradientUnits="userSpaceOnUse">
<stop stop-color="white" stop-opacity="0"/>
<stop offset="0.099" stop-color="white" stop-opacity="0.067"/>
<stop offset="0.294" stop-color="white" stop-opacity="0.239"/>
<stop offset="0.568" stop-color="white" stop-opacity="0.522"/>
<stop offset="0.907" stop-color="white" stop-opacity="0.902"/>
<stop offset="0.989" stop-color="white"/>
</linearGradient>
<linearGradient id="paint37_linear_1_14" x1="1106.06" y1="365.109" x2="1106.06" y2="355.789" gradientUnits="userSpaceOnUse">
<stop stop-color="white" stop-opacity="0"/>
<stop offset="0.099" stop-color="white" stop-opacity="0.067"/>
<stop offset="0.294" stop-color="white" stop-opacity="0.239"/>
<stop offset="0.568" stop-color="white" stop-opacity="0.522"/>
<stop offset="0.907" stop-color="white" stop-opacity="0.902"/>
<stop offset="0.989" stop-color="white"/>
</linearGradient>
<linearGradient id="paint38_linear_1_14" x1="1269.33" y1="234.342" x2="1269.33" y2="225.037" gradientUnits="userSpaceOnUse">
<stop stop-color="white" stop-opacity="0"/>
<stop offset="0.099" stop-color="white" stop-opacity="0.067"/>
<stop offset="0.294" stop-color="white" stop-opacity="0.239"/>
<stop offset="0.568" stop-color="white" stop-opacity="0.522"/>
<stop offset="0.907" stop-color="white" stop-opacity="0.902"/>
<stop offset="0.989" stop-color="white"/>
</linearGradient>
<linearGradient id="paint39_linear_1_14" x1="-5588.75" y1="775.797" x2="-5588.75" y2="718.956" gradientUnits="userSpaceOnUse">
<stop stop-color="white" stop-opacity="0"/>
<stop offset="0.099" stop-color="white" stop-opacity="0.067"/>
<stop offset="0.294" stop-color="white" stop-opacity="0.239"/>
<stop offset="0.568" stop-color="white" stop-opacity="0.522"/>
<stop offset="0.907" stop-color="white" stop-opacity="0.902"/>
<stop offset="0.989" stop-color="white"/>
</linearGradient>
<linearGradient id="paint40_linear_1_14" x1="-4821.75" y1="775.797" x2="-4821.75" y2="718.956" gradientUnits="userSpaceOnUse">
<stop stop-color="white" stop-opacity="0"/>
<stop offset="0.099" stop-color="white" stop-opacity="0.067"/>
<stop offset="0.294" stop-color="white" stop-opacity="0.239"/>
<stop offset="0.568" stop-color="white" stop-opacity="0.522"/>
<stop offset="0.907" stop-color="white" stop-opacity="0.902"/>
<stop offset="0.989" stop-color="white"/>
</linearGradient>
<linearGradient id="paint41_linear_1_14" x1="-12695.5" y1="789.231" x2="-12695.5" y2="732.449" gradientUnits="userSpaceOnUse">
<stop stop-color="white" stop-opacity="0"/>
<stop offset="0.099" stop-color="white" stop-opacity="0.067"/>
<stop offset="0.294" stop-color="white" stop-opacity="0.239"/>
<stop offset="0.568" stop-color="white" stop-opacity="0.522"/>
<stop offset="0.907" stop-color="white" stop-opacity="0.902"/>
<stop offset="0.989" stop-color="white"/>
</linearGradient>
<linearGradient id="paint42_linear_1_14" x1="-6736.76" y1="806.488" x2="-6736.76" y2="749.708" gradientUnits="userSpaceOnUse">
<stop stop-color="white" stop-opacity="0"/>
<stop offset="0.099" stop-color="white" stop-opacity="0.067"/>
<stop offset="0.294" stop-color="white" stop-opacity="0.239"/>
<stop offset="0.568" stop-color="white" stop-opacity="0.522"/>
<stop offset="0.907" stop-color="white" stop-opacity="0.902"/>
<stop offset="0.989" stop-color="white"/>
</linearGradient>
<clipPath id="clip0_1_14">
<rect width="1368" height="768" fill="white"/>
</clipPath>
</defs>
</svg>
