<svg width="18" height="16" viewBox="0 0 18 16" fill="none" xmlns="http://www.w3.org/2000/svg">
<path d="M6.37897 13.559L6.37097 13.553C5.93291 13.1536 5.43907 12.8201 4.90497 12.563C4.61797 12.541 4.37197 12.532 4.15097 12.526H4.14197C3.36324 12.5878 2.5901 12.3516 1.97897 11.865C0.986966 11.048 0.995966 9.342 1.00097 7.971V7.535C0.994966 6.163 0.986966 4.454 1.97797 3.635C2.59243 3.14664 3.36966 2.91032 4.15197 2.974H4.20797C4.40797 2.966 4.64197 2.958 4.90797 2.939C5.4367 2.68314 5.92602 2.35278 6.36097 1.958L6.37697 1.945C7.40797 1.125 8.82197 0 10.22 0C10.6605 9.99185e-06 11.0933 0.115886 11.475 0.336C11.5063 0.354679 11.5364 0.37539 11.565 0.398C12.959 1.492 13.021 3.557 13.021 7.751C13.021 11.945 12.959 14.01 11.565 15.106C11.5361 15.1285 11.5057 15.1489 11.474 15.167C11.0923 15.387 10.6595 15.5029 10.219 15.503C8.82997 15.5 7.46997 14.424 6.37897 13.559ZM7.30697 3.121H7.30197C6.67446 3.76001 5.88382 4.21482 5.01597 4.436C4.71597 4.458 4.44997 4.468 4.20597 4.477C3.45897 4.502 3.26897 4.518 2.93297 4.796C2.49097 5.161 2.50097 6.642 2.50097 7.528V7.973C2.50097 8.859 2.48897 10.342 2.93197 10.705C3.26697 10.982 3.45597 10.999 4.20197 11.026C4.40997 11.031 4.68997 11.041 5.01497 11.066C5.88195 11.2849 6.6725 11.7369 7.30097 12.373L7.30997 12.38C8.21597 13.099 9.34497 13.995 10.21 13.995C10.3733 13.9973 10.535 13.9613 10.682 13.89C11.442 13.231 11.521 11.514 11.521 7.751C11.521 3.988 11.442 2.272 10.682 1.611C10.5343 1.54115 10.3723 1.5069 10.209 1.511C9.33997 1.507 8.21297 2.4 7.30697 3.121ZM15.958 12.087C15.7859 11.9878 15.6601 11.8244 15.6084 11.6326C15.5567 11.4408 15.5831 11.2363 15.682 11.064C16.2575 10.0547 16.5602 8.91287 16.5602 7.751C16.5602 6.58913 16.2575 5.4473 15.682 4.438C15.6283 4.35247 15.5925 4.25697 15.5766 4.15725C15.5607 4.05753 15.5652 3.95563 15.5896 3.85767C15.6141 3.7597 15.6581 3.66768 15.719 3.58713C15.7799 3.50658 15.8564 3.43916 15.944 3.3889C16.0316 3.33864 16.1284 3.30659 16.2287 3.29466C16.3289 3.28273 16.4306 3.29117 16.5275 3.31947C16.6244 3.34777 16.7146 3.39536 16.7927 3.45937C16.8708 3.52339 16.9352 3.60251 16.982 3.692C17.6875 4.92844 18.0586 6.32743 18.0586 7.751C18.0586 9.17457 17.6875 10.5736 16.982 11.81C16.933 11.8955 16.8677 11.9706 16.7897 12.0308C16.7117 12.091 16.6226 12.1353 16.5275 12.161C16.4323 12.1868 16.3331 12.1935 16.2353 12.1808C16.1376 12.1681 16.0434 12.1362 15.958 12.087Z" fill="#FFFEFE"/>
<rect x="1.28516" y="0.167755" width="21.2608" height="1.6" rx="0.8" transform="rotate(44 1.28516 0.167755)" fill="white"/>
</svg>
